<svg xmlns="http://www.w3.org/2000/svg" width="1000" height="1200"><rect width="1000" height="1200" x="0" y="0" fill="#FFFFFF" id="background"/><g transform="translate(10,10)" id="viz"><g id="links"><path d="M0,536.612542841498C140,536.612542841498,140,162.51975170554712,280,162.51975170554712" fill="none" stroke="#ccc"/><path d="M0,536.612542841498C140,536.612542841498,140,477.7875842893646,280,477.7875842893646" fill="none" stroke="#ccc"/><path d="M0,536.612542841498C140,536.612542841498,140,910.7053339774488,280,910.7053339774488" fill="none" stroke="#ccc"/><path d="M280,162.51975170554712C420,162.51975170554712,420,43.38185372019794,560,43.38185372019794" fill="none" stroke="#ccc"/><path d="M280,162.51975170554712C420,162.51975170554712,420,128.86223281689794,560,128.86223281689794" fill="none" stroke="#ccc"/><path d="M280,162.51975170554712C420,162.51975170554712,420,206.23914931594246,560,206.23914931594246" fill="none" stroke="#ccc"/><path d="M280,162.51975170554712C420,162.51975170554712,420,281.6576496908963,560,281.6576496908963" fill="none" stroke="#ccc"/><path d="M280,477.7875842893646C420,477.7875842893646,420,363.7199182348742,560,363.7199182348742" fill="none" stroke="#ccc"/><path d="M280,477.7875842893646C420,477.7875842893646,420,449.5242097944234,560,449.5242097944234" fill="none" stroke="#ccc"/><path d="M280,477.7875842893646C420,477.7875842893646,420,524.5457014830196,560,524.5457014830196" fill="none" stroke="#ccc"/><path d="M280,477.7875842893646C420,477.7875842893646,420,591.8552503438549,560,591.8552503438549" fill="none" stroke="#ccc"/><path d="M280,910.7053339774488C420,910.7053339774488,420,666.614775917684,560,666.614775917684" fill="none" stroke="#ccc"/><path d="M280,910.7053339774488C420,910.7053339774488,420,747.6567139243389,560,747.6567139243389" fill="none" stroke="#ccc"/><path d="M280,910.7053339774488C420,910.7053339774488,420,822.4296741638886,560,822.4296741638886" fill="none" stroke="#ccc"/><path d="M280,910.7053339774488C420,910.7053339774488,420,889.2222717364268,560,889.2222717364268" fill="none" stroke="#ccc"/><path d="M280,910.7053339774488C420,910.7053339774488,420,950.7630676071661,560,950.7630676071661" fill="none" stroke="#ccc"/><path d="M280,910.7053339774488C420,910.7053339774488,420,1006.7717859289684,560,1006.7717859289684" fill="none" stroke="#ccc"/><path d="M280,910.7053339774488C420,910.7053339774488,420,1058.7811951558683,560,1058.7811951558683" fill="none" stroke="#ccc"/><path d="M280,910.7053339774488C420,910.7053339774488,420,1108.660476966395,560,1108.660476966395" fill="none" stroke="#ccc"/><path d="M280,910.7053339774488C420,910.7053339774488,420,1154.7958920372134,560,1154.7958920372134" fill="none" stroke="#ccc"/><path d="M560,43.38185372019794C700,43.38185372019794,700,8.787219845603804,840,8.787219845603804" fill="none" stroke="#ccc"/><path d="M560,43.38185372019794C700,43.38185372019794,700,33.16315202088514,840,33.16315202088514" fill="none" stroke="#ccc"/><path d="M560,43.38185372019794C700,43.38185372019794,700,56.41710406811992,840,56.41710406811992" fill="none" stroke="#ccc"/><path d="M560,43.38185372019794C700,43.38185372019794,700,77.97648759479208,840,77.97648759479208" fill="none" stroke="#ccc"/><path d="M560,128.86223281689794C700,128.86223281689794,700,99.25683637024599,840,99.25683637024599" fill="none" stroke="#ccc"/><path d="M560,128.86223281689794C700,128.86223281689794,700,120.31990430465916,840,120.31990430465916" fill="none" stroke="#ccc"/><path d="M560,128.86223281689794C700,128.86223281689794,700,140.1917099053144,840,140.1917099053144" fill="none" stroke="#ccc"/><path d="M560,128.86223281689794C700,128.86223281689794,700,158.46762926355,840,158.46762926355" fill="none" stroke="#ccc"/><path d="M560,206.23914931594246C700,206.23914931594246,700,177.70401497817974,840,177.70401497817974" fill="none" stroke="#ccc"/><path d="M560,206.23914931594246C700,206.23914931594246,700,198.07151018768957,840,198.07151018768957" fill="none" stroke="#ccc"/><path d="M560,206.23914931594246C700,206.23914931594246,700,216.97145772130824,840,216.97145772130824" fill="none" stroke="#ccc"/><path d="M560,206.23914931594246C700,206.23914931594246,700,234.77428365370523,840,234.77428365370523" fill="none" stroke="#ccc"/><path d="M560,281.6576496908963C700,281.6576496908963,700,253.65948994189773,840,253.65948994189773" fill="none" stroke="#ccc"/><path d="M560,281.6576496908963C700,281.6576496908963,700,273.89444260179897,840,273.89444260179897" fill="none" stroke="#ccc"/><path d="M560,281.6576496908963C700,281.6576496908963,700,293.25116362333904,840,293.25116362333904" fill="none" stroke="#ccc"/><path d="M560,281.6576496908963C700,281.6576496908963,700,309.6558094398947,840,309.6558094398947" fill="none" stroke="#ccc"/><path d="M560,363.7199182348742C700,363.7199182348742,700,328.99840874537307,840,328.99840874537307" fill="none" stroke="#ccc"/><path d="M560,363.7199182348742C700,363.7199182348742,700,353.3265802253401,840,353.3265802253401" fill="none" stroke="#ccc"/><path d="M560,363.7199182348742C700,363.7199182348742,700,377.0231379624842,840,377.0231379624842" fill="none" stroke="#ccc"/><path d="M560,363.7199182348742C700,363.7199182348742,700,398.4414277243754,840,398.4414277243754" fill="none" stroke="#ccc"/><path d="M560,449.5242097944234C700,449.5242097944234,700,419.8406794398286,840,419.8406794398286" fill="none" stroke="#ccc"/><path d="M560,449.5242097944234C700,449.5242097944234,700,441.1703178950267,840,441.1703178950267" fill="none" stroke="#ccc"/><path d="M560,449.5242097944234C700,449.5242097944234,700,460.3257098248712,840,460.3257098248712" fill="none" stroke="#ccc"/><path d="M560,449.5242097944234C700,449.5242097944234,700,479.2077401490182,840,479.2077401490182" fill="none" stroke="#ccc"/><path d="M560,524.5457014830196C700,524.5457014830196,700,498.3568473071623,840,498.3568473071623" fill="none" stroke="#ccc"/><path d="M560,524.5457014830196C700,524.5457014830196,700,517.3173188060023,840,517.3173188060023" fill="none" stroke="#ccc"/><path d="M560,524.5457014830196C700,524.5457014830196,700,535.020929770312,840,535.020929770312" fill="none" stroke="#ccc"/><path d="M560,524.5457014830196C700,524.5457014830196,700,550.7345556588768,840,550.7345556588768" fill="none" stroke="#ccc"/><path d="M560,591.8552503438549C700,591.8552503438549,700,566.867620475563,840,566.867620475563" fill="none" stroke="#ccc"/><path d="M560,591.8552503438549C700,591.8552503438549,700,584.5419672741483,840,584.5419672741483" fill="none" stroke="#ccc"/><path d="M560,591.8552503438549C700,591.8552503438549,700,601.240294482162,840,601.240294482162" fill="none" stroke="#ccc"/><path d="M560,591.8552503438549C700,591.8552503438549,700,616.8428802121468,840,616.8428802121468" fill="none" stroke="#ccc"/><path d="M560,666.614775917684C700,666.614775917684,700,635.6176528957707,840,635.6176528957707" fill="none" stroke="#ccc"/><path d="M560,666.614775917684C700,666.614775917684,700,657.7050050913043,840,657.7050050913043" fill="none" stroke="#ccc"/><path d="M560,666.614775917684C700,666.614775917684,700,678.5497833090774,840,678.5497833090774" fill="none" stroke="#ccc"/><path d="M560,666.614775917684C700,666.614775917684,700,697.6118989395974,840,697.6118989395974" fill="none" stroke="#ccc"/><path d="M560,747.6567139243389C700,747.6567139243389,700,717.239967611669,840,717.239967611669" fill="none" stroke="#ccc"/><path d="M560,747.6567139243389C700,747.6567139243389,700,737.9740794889905,840,737.9740794889905" fill="none" stroke="#ccc"/><path d="M560,747.6567139243389C700,747.6567139243389,700,758.538223619283,840,758.538223619283" fill="none" stroke="#ccc"/><path d="M560,747.6567139243389C700,747.6567139243389,700,778.0734602370087,840,778.0734602370087" fill="none" stroke="#ccc"/><path d="M560,822.4296741638886C700,822.4296741638886,700,796.5269363654749,840,796.5269363654749" fill="none" stroke="#ccc"/><path d="M560,822.4296741638886C700,822.4296741638886,700,814.5479726196895,840,814.5479726196895" fill="none" stroke="#ccc"/><path d="M560,822.4296741638886C700,822.4296741638886,700,831.8383516637592,840,831.8383516637592" fill="none" stroke="#ccc"/><path d="M560,822.4296741638886C700,822.4296741638886,700,848.3324119623026,840,848.3324119623026" fill="none" stroke="#ccc"/><path d="M560,889.2222717364268C700,889.2222717364268,700,865.0532429945779,840,865.0532429945779" fill="none" stroke="#ccc"/><path d="M560,889.2222717364268C700,889.2222717364268,700,881.8276369109552,840,881.8276369109552" fill="none" stroke="#ccc"/><path d="M560,889.2222717364268C700,889.2222717364268,700,897.8784494919063,840,897.8784494919063" fill="none" stroke="#ccc"/><path d="M560,889.2222717364268C700,889.2222717364268,700,913.3913004782759,840,913.3913004782759" fill="none" stroke="#ccc"/><path d="M560,950.7630676071661C700,950.7630676071661,700,928.9596452511171,840,928.9596452511171" fill="none" stroke="#ccc"/><path d="M560,950.7630676071661C700,950.7630676071661,700,944.1729549400363,840,944.1729549400363" fill="none" stroke="#ccc"/><path d="M560,950.7630676071661C700,950.7630676071661,700,958.5157151467274,840,958.5157151467274" fill="none" stroke="#ccc"/><path d="M560,950.7630676071661C700,950.7630676071661,700,972.5664899632152,840,972.5664899632152" fill="none" stroke="#ccc"/><path d="M560,1006.7717859289684C700,1006.7717859289684,700,986.5864660222418,840,986.5864660222418" fill="none" stroke="#ccc"/><path d="M560,1006.7717859289684C700,1006.7717859289684,700,1000.4971389927053,840,1000.4971389927053" fill="none" stroke="#ccc"/><path d="M560,1006.7717859289684C700,1006.7717859289684,700,1013.9403285463173,840,1013.9403285463173" fill="none" stroke="#ccc"/><path d="M560,1006.7717859289684C700,1006.7717859289684,700,1026.9571058356948,840,1026.9571058356948" fill="none" stroke="#ccc"/><path d="M560,1058.7811951558683C700,1058.7811951558683,700,1039.7911942697692,840,1039.7911942697692" fill="none" stroke="#ccc"/><path d="M560,1058.7811951558683C700,1058.7811951558683,700,1052.5767445580316,840,1052.5767445580316" fill="none" stroke="#ccc"/><path d="M560,1058.7811951558683C700,1058.7811951558683,700,1065.270844797777,840,1065.270844797777" fill="none" stroke="#ccc"/><path d="M560,1058.7811951558683C700,1058.7811951558683,700,1077.7711960419674,840,1077.7711960419674" fill="none" stroke="#ccc"/><path d="M560,1108.660476966395C700,1108.660476966395,700,1090.4369238657266,840,1090.4369238657266" fill="none" stroke="#ccc"/><path d="M560,1108.660476966395C700,1108.660476966395,700,1102.9435922467765,840,1102.9435922467765" fill="none" stroke="#ccc"/><path d="M560,1108.660476966395C700,1108.660476966395,700,1114.9430657282967,840,1114.9430657282967" fill="none" stroke="#ccc"/><path d="M560,1108.660476966395C700,1108.660476966395,700,1126.8840300670638,840,1126.8840300670638" fill="none" stroke="#ccc"/><path d="M560,1154.7958920372134C700,1154.7958920372134,700,1138.379003920031,840,1138.379003920031" fill="none" stroke="#ccc"/><path d="M560,1154.7958920372134C700,1154.7958920372134,700,1149.4104768503441,840,1149.4104768503441" fill="none" stroke="#ccc"/><path d="M560,1154.7958920372134C700,1154.7958920372134,700,1160.3838624289772,840,1160.3838624289772" fill="none" stroke="#ccc"/><path d="M560,1154.7958920372134C700,1154.7958920372134,700,1171.212780154396,840,1171.212780154396" fill="none" stroke="#ccc"/></g><g id="nodes"><g transform="translate(0,536.612542841498)"><circle fill="#ccc" r="5"/><text text-anchor="end" dominant-baseline="text-before-edge" transform="translate(0,0)"><tspan x="-8" y="0" dy="0" style="font-family: Arial, sans-serif; font-size: 10px; fill: black; font-weight: normal;"/></text></g><g id="Technology" transform="translate(280,162.51975170554712)"><circle fill="#ccc" r="5"/><text text-anchor="end" dominant-baseline="text-before-edge" transform="translate(0,-5.5)"><tspan x="-8" y="0" dy="0" style="font-family: Arial, sans-serif; font-size: 10px; fill: black; font-weight: normal;">Technology</tspan></text></g><g id="Furniture" transform="translate(280,477.7875842893646)"><circle fill="#ccc" r="5"/><text text-anchor="end" dominant-baseline="text-before-edge" transform="translate(0,-5.5)"><tspan x="-8" y="0" dy="0" style="font-family: Arial, sans-serif; font-size: 10px; fill: black; font-weight: normal;">Furniture</tspan></text></g><g id="Office Supplies" transform="translate(280,910.7053339774488)"><circle fill="#ccc" r="5"/><text text-anchor="end" dominant-baseline="text-before-edge" transform="translate(0,-5.5)"><tspan x="-8" y="0" dy="0" style="font-family: Arial, sans-serif; font-size: 10px; fill: black; font-weight: normal;">Office Supplies</tspan></text></g><g id="Phones" transform="translate(560,43.38185372019794)"><circle fill="#ccc" r="5"/><text text-anchor="end" dominant-baseline="text-before-edge" transform="translate(0,-5.5)"><tspan x="-8" y="0" dy="0" style="font-family: Arial, sans-serif; font-size: 10px; fill: black; font-weight: normal;">Phones</tspan></text></g><g id="Machines" transform="translate(560,128.86223281689794)"><circle fill="#ccc" r="5"/><text text-anchor="end" dominant-baseline="text-before-edge" transform="translate(0,-5.5)"><tspan x="-8" y="0" dy="0" style="font-family: Arial, sans-serif; font-size: 10px; fill: black; font-weight: normal;">Machines</tspan></text></g><g id="Accessories" transform="translate(560,206.23914931594246)"><circle fill="#ccc" r="5"/><text text-anchor="end" dominant-baseline="text-before-edge" transform="translate(0,-5.5)"><tspan x="-8" y="0" dy="0" style="font-family: Arial, sans-serif; font-size: 10px; fill: black; font-weight: normal;">Accessories</tspan></text></g><g id="Copiers" transform="translate(560,281.6576496908963)"><circle fill="#ccc" r="5"/><text text-anchor="end" dominant-baseline="text-before-edge" transform="translate(0,-5.5)"><tspan x="-8" y="0" dy="0" style="font-family: Arial, sans-serif; font-size: 10px; fill: black; font-weight: normal;">Copiers</tspan></text></g><g id="Chairs" transform="translate(560,363.7199182348742)"><circle fill="#ccc" r="5"/><text text-anchor="end" dominant-baseline="text-before-edge" transform="translate(0,-5.5)"><tspan x="-8" y="0" dy="0" style="font-family: Arial, sans-serif; font-size: 10px; fill: black; font-weight: normal;">Chairs</tspan></text></g><g id="Tables" transform="translate(560,449.5242097944234)"><circle fill="#ccc" r="5"/><text text-anchor="end" dominant-baseline="text-before-edge" transform="translate(0,-5.5)"><tspan x="-8" y="0" dy="0" style="font-family: Arial, sans-serif; font-size: 10px; fill: black; font-weight: normal;">Tables</tspan></text></g><g id="Bookcases" transform="translate(560,524.5457014830196)"><circle fill="#ccc" r="5"/><text text-anchor="end" dominant-baseline="text-before-edge" transform="translate(0,-5.5)"><tspan x="-8" y="0" dy="0" style="font-family: Arial, sans-serif; font-size: 10px; fill: black; font-weight: normal;">Bookcases</tspan></text></g><g id="Furnishings" transform="translate(560,591.8552503438549)"><circle fill="#ccc" r="5"/><text text-anchor="end" dominant-baseline="text-before-edge" transform="translate(0,-5.5)"><tspan x="-8" y="0" dy="0" style="font-family: Arial, sans-serif; font-size: 10px; fill: black; font-weight: normal;">Furnishings</tspan></text></g><g id="Storage" transform="translate(560,666.614775917684)"><circle fill="#ccc" r="5"/><text text-anchor="end" dominant-baseline="text-before-edge" transform="translate(0,-5.5)"><tspan x="-8" y="0" dy="0" style="font-family: Arial, sans-serif; font-size: 10px; fill: black; font-weight: normal;">Storage</tspan></text></g><g id="Binders" transform="translate(560,747.6567139243389)"><circle fill="#ccc" r="5"/><text text-anchor="end" dominant-baseline="text-before-edge" transform="translate(0,-5.5)"><tspan x="-8" y="0" dy="0" style="font-family: Arial, sans-serif; font-size: 10px; fill: black; font-weight: normal;">Binders</tspan></text></g><g id="Appliances" transform="translate(560,822.4296741638886)"><circle fill="#ccc" r="5"/><text text-anchor="end" dominant-baseline="text-before-edge" transform="translate(0,-5.5)"><tspan x="-8" y="0" dy="0" style="font-family: Arial, sans-serif; font-size: 10px; fill: black; font-weight: normal;">Appliances</tspan></text></g><g id="Paper" transform="translate(560,889.2222717364268)"><circle fill="#ccc" r="5"/><text text-anchor="end" dominant-baseline="text-before-edge" transform="translate(0,-5.5)"><tspan x="-8" y="0" dy="0" style="font-family: Arial, sans-serif; font-size: 10px; fill: black; font-weight: normal;">Paper</tspan></text></g><g id="Supplies" transform="translate(560,950.7630676071661)"><circle fill="#ccc" r="5"/><text text-anchor="end" dominant-baseline="text-before-edge" transform="translate(0,-5.5)"><tspan x="-8" y="0" dy="0" style="font-family: Arial, sans-serif; font-size: 10px; fill: black; font-weight: normal;">Supplies</tspan></text></g><g id="Art" transform="translate(560,1006.7717859289684)"><circle fill="#ccc" r="5"/><text text-anchor="end" dominant-baseline="text-before-edge" transform="translate(0,-5.5)"><tspan x="-8" y="0" dy="0" style="font-family: Arial, sans-serif; font-size: 10px; fill: black; font-weight: normal;">Art</tspan></text></g><g id="Envelopes" transform="translate(560,1058.7811951558683)"><circle fill="#ccc" r="5"/><text text-anchor="end" dominant-baseline="text-before-edge" transform="translate(0,-5.5)"><tspan x="-8" y="0" dy="0" style="font-family: Arial, sans-serif; font-size: 10px; fill: black; font-weight: normal;">Envelopes</tspan></text></g><g id="Labels" transform="translate(560,1108.660476966395)"><circle fill="#ccc" r="5"/><text text-anchor="end" dominant-baseline="text-before-edge" transform="translate(0,-5.5)"><tspan x="-8" y="0" dy="0" style="font-family: Arial, sans-serif; font-size: 10px; fill: black; font-weight: normal;">Labels</tspan></text></g><g id="Fasteners" transform="translate(560,1154.7958920372134)"><circle fill="#ccc" r="5"/><text text-anchor="end" dominant-baseline="text-before-edge" transform="translate(0,-5.5)"><tspan x="-8" y="0" dy="0" style="font-family: Arial, sans-serif; font-size: 10px; fill: black; font-weight: normal;">Fasteners</tspan></text></g><g id="East" transform="translate(840,8.787219845603804)"><circle fill="#ff7f0e" r="7.456903686584737"/><text text-anchor="start" dominant-baseline="text-before-edge" transform="translate(0,-5.5)"><tspan x="9.456903686584738" y="0" dy="0" style="font-family: Arial, sans-serif; font-size: 10px; fill: black; font-weight: bold;">100614.98200000003</tspan></text></g><g id="West" transform="translate(840,33.16315202088514)"><circle fill="#d62728" r="7.38501452309412"/><text text-anchor="start" dominant-baseline="text-before-edge" transform="translate(0,-5.5)"><tspan x="9.38501452309412" y="0" dy="0" style="font-family: Arial, sans-serif; font-size: 10px; fill: black; font-weight: bold;">98684.35200000001</tspan></text></g><g id="Central" transform="translate(840,56.41710406811992)"><circle fill="#1f77b4" r="6.325667110435584"/><text text-anchor="start" dominant-baseline="text-before-edge" transform="translate(0,-5.5)"><tspan x="8.325667110435585" y="0" dy="0" style="font-family: Arial, sans-serif; font-size: 10px; fill: black; font-weight: bold;">72403.28199999998</tspan></text></g><g id="South" transform="translate(840,77.97648759479208)"><circle fill="#2ca02c" r="5.676465643009262"/><text text-anchor="start" dominant-baseline="text-before-edge" transform="translate(0,-5.5)"><tspan x="7.676465643009262" y="0" dy="0" style="font-family: Arial, sans-serif; font-size: 10px; fill: black; font-weight: bold;">58304.437999999995</tspan></text></g><g id="East" transform="translate(840,99.25683637024599)"><circle fill="#ff7f0e" r="6.044330294654092"/><text text-anchor="start" dominant-baseline="text-before-edge" transform="translate(0,-5.5)"><tspan x="8.044330294654092" y="0" dy="0" style="font-family: Arial, sans-serif; font-size: 10px; fill: black; font-weight: bold;">66106.16500000001</tspan></text></g><g id="South" transform="translate(840,120.31990430465916)"><circle fill="#2ca02c" r="5.457392213331235"/><text text-anchor="start" dominant-baseline="text-before-edge" transform="translate(0,-5.5)"><tspan x="7.457392213331235" y="0" dy="0" style="font-family: Arial, sans-serif; font-size: 10px; fill: black; font-weight: bold;">53890.96</tspan></text></g><g id="West" transform="translate(840,140.1917099053144)"><circle fill="#d62728" r="4.8432399276776605"/><text text-anchor="start" dominant-baseline="text-before-edge" transform="translate(0,-5.5)"><tspan x="6.8432399276776605" y="0" dy="0" style="font-family: Arial, sans-serif; font-size: 10px; fill: black; font-weight: bold;">42444.122</tspan></text></g><g id="Central" transform="translate(840,158.46762926355)"><circle fill="#1f77b4" r="3.848339750038859"/><text text-anchor="start" dominant-baseline="text-before-edge" transform="translate(0,-5.5)"><tspan x="5.848339750038859" y="0" dy="0" style="font-family: Arial, sans-serif; font-size: 10px; fill: black; font-weight: bold;">26797.384000000005</tspan></text></g><g id="West" transform="translate(840,177.70401497817974)"><circle fill="#d62728" r="5.81163022742879"/><text text-anchor="start" dominant-baseline="text-before-edge" transform="translate(0,-5.5)"><tspan x="7.81163022742879" y="0" dy="0" style="font-family: Arial, sans-serif; font-size: 10px; fill: black; font-weight: bold;">61114.11600000002</tspan></text></g><g id="East" transform="translate(840,198.07151018768957)"><circle fill="#ff7f0e" r="4.988781011209583"/><text text-anchor="start" dominant-baseline="text-before-edge" transform="translate(0,-5.5)"><tspan x="6.988781011209583" y="0" dy="0" style="font-family: Arial, sans-serif; font-size: 10px; fill: black; font-weight: bold;">45033.37200000001</tspan></text></g><g id="Central" transform="translate(840,216.97145772130824)"><circle fill="#1f77b4" r="4.33197513665535"/><text text-anchor="start" dominant-baseline="text-before-edge" transform="translate(0,-5.5)"><tspan x="6.33197513665535" y="0" dy="0" style="font-family: Arial, sans-serif; font-size: 10px; fill: black; font-weight: bold;">33956.07600000001</tspan></text></g><g id="South" transform="translate(840,234.77428365370523)"><circle fill="#2ca02c" r="3.8826080472140796"/><text text-anchor="start" dominant-baseline="text-before-edge" transform="translate(0,-5.5)"><tspan x="5.882608047214079" y="0" dy="0" style="font-family: Arial, sans-serif; font-size: 10px; fill: black; font-weight: bold;">27276.753999999997</tspan></text></g><g id="East" transform="translate(840,253.65948994189773)"><circle fill="#ff7f0e" r="5.4232852384777885"/><text text-anchor="start" dominant-baseline="text-before-edge" transform="translate(0,-5.5)"><tspan x="7.4232852384777885" y="0" dy="0" style="font-family: Arial, sans-serif; font-size: 10px; fill: black; font-weight: bold;">53219.462000000014</tspan></text></g><g id="West" transform="translate(840,273.89444260179897)"><circle fill="#d62728" r="5.243489961281395"/><text text-anchor="start" dominant-baseline="text-before-edge" transform="translate(0,-5.5)"><tspan x="7.243489961281395" y="0" dy="0" style="font-family: Arial, sans-serif; font-size: 10px; fill: black; font-weight: bold;">49749.242</tspan></text></g><g id="Central" transform="translate(840,293.25116362333904)"><circle fill="#1f77b4" r="4.537808101395864"/><text text-anchor="start" dominant-baseline="text-before-edge" transform="translate(0,-5.5)"><tspan x="6.537808101395864" y="0" dy="0" style="font-family: Arial, sans-serif; font-size: 10px; fill: black; font-weight: bold;">37259.57</tspan></text></g><g id="South" transform="translate(840,309.6558094398947)"><circle fill="#2ca02c" r="2.2670598410477503"/><text text-anchor="start" dominant-baseline="text-before-edge" transform="translate(0,-5.5)"><tspan x="4.26705984104775" y="0" dy="0" style="font-family: Arial, sans-serif; font-size: 10px; fill: black; font-weight: bold;">9299.756000000001</tspan></text></g><g id="West" transform="translate(840,328.99840874537307)"><circle fill="#d62728" r="7.5"/><text text-anchor="start" dominant-baseline="text-before-edge" transform="translate(0,-5.5)"><tspan x="9.5" y="0" dy="0" style="font-family: Arial, sans-serif; font-size: 10px; fill: black; font-weight: bold;">101781.32799999989</tspan></text></g><g id="East" transform="translate(840,353.3265802253401)"><circle fill="#ff7f0e" r="7.29376348385855"/><text text-anchor="start" dominant-baseline="text-before-edge" transform="translate(0,-5.5)"><tspan x="9.29376348385855" y="0" dy="0" style="font-family: Arial, sans-serif; font-size: 10px; fill: black; font-weight: bold;">96260.68299999995</tspan></text></g><g id="Central" transform="translate(840,377.0231379624842)"><circle fill="#1f77b4" r="6.86317538072297"/><text text-anchor="start" dominant-baseline="text-before-edge" transform="translate(0,-5.5)"><tspan x="8.86317538072297" y="0" dy="0" style="font-family: Arial, sans-serif; font-size: 10px; fill: black; font-weight: bold;">85230.64599999995</tspan></text></g><g id="South" transform="translate(840,398.4414277243754)"><circle fill="#2ca02c" r="4.996699570291184"/><text text-anchor="start" dominant-baseline="text-before-edge" transform="translate(0,-5.5)"><tspan x="6.996699570291184" y="0" dy="0" style="font-family: Arial, sans-serif; font-size: 10px; fill: black; font-weight: bold;">45176.445999999974</tspan></text></g><g id="West" transform="translate(840,419.8406794398286)"><circle fill="#d62728" r="6.843980268500671"/><text text-anchor="start" dominant-baseline="text-before-edge" transform="translate(0,-5.5)"><tspan x="8.84398026850067" y="0" dy="0" style="font-family: Arial, sans-serif; font-size: 10px; fill: black; font-weight: bold;">84754.56199999998</tspan></text></g><g id="South" transform="translate(840,441.1703178950267)"><circle fill="#2ca02c" r="4.926511993687076"/><text text-anchor="start" dominant-baseline="text-before-edge" transform="translate(0,-5.5)"><tspan x="6.926511993687076" y="0" dy="0" style="font-family: Arial, sans-serif; font-size: 10px; fill: black; font-weight: bold;">43916.191999999995</tspan></text></g><g id="Central" transform="translate(840,460.3257098248712)"><circle fill="#1f77b4" r="4.651795992182335"/><text text-anchor="start" dominant-baseline="text-before-edge" transform="translate(0,-5.5)"><tspan x="6.651795992182335" y="0" dy="0" style="font-family: Arial, sans-serif; font-size: 10px; fill: black; font-weight: bold;">39154.971</tspan></text></g><g id="East" transform="translate(840,479.2077401490182)"><circle fill="#ff7f0e" r="4.650895127443561"/><text text-anchor="start" dominant-baseline="text-before-edge" transform="translate(0,-5.5)"><tspan x="6.650895127443561" y="0" dy="0" style="font-family: Arial, sans-serif; font-size: 10px; fill: black; font-weight: bold;">39139.80700000001</tspan></text></g><g id="East" transform="translate(840,498.3568473071623)"><circle fill="#ff7f0e" r="4.9210762367313245"/><text text-anchor="start" dominant-baseline="text-before-edge" transform="translate(0,-5.5)"><tspan x="6.9210762367313245" y="0" dy="0" style="font-family: Arial, sans-serif; font-size: 10px; fill: black; font-weight: bold;">43819.333999999995</tspan></text></g><g id="West" transform="translate(840,517.3173188060023)"><circle fill="#d62728" r="4.460703205112229"/><text text-anchor="start" dominant-baseline="text-before-edge" transform="translate(0,-5.5)"><tspan x="6.460703205112229" y="0" dy="0" style="font-family: Arial, sans-serif; font-size: 10px; fill: black; font-weight: bold;">36004.123500000016</tspan></text></g><g id="Central" transform="translate(840,535.020929770312)"><circle fill="#1f77b4" r="3.653846477275094"/><text text-anchor="start" dominant-baseline="text-before-edge" transform="translate(0,-5.5)"><tspan x="5.653846477275094" y="0" dy="0" style="font-family: Arial, sans-serif; font-size: 10px; fill: black; font-weight: bold;">24157.176799999994</tspan></text></g><g id="South" transform="translate(840,550.7345556588768)"><circle fill="#2ca02c" r="2.454300553763282"/><text text-anchor="start" dominant-baseline="text-before-edge" transform="translate(0,-5.5)"><tspan x="4.454300553763282" y="0" dy="0" style="font-family: Arial, sans-serif; font-size: 10px; fill: black; font-weight: bold;">10899.362</tspan></text></g><g id="West" transform="translate(840,566.867620475563)"><circle fill="#d62728" r="4.076745818440565"/><text text-anchor="start" dominant-baseline="text-before-edge" transform="translate(0,-5.5)"><tspan x="6.076745818440565" y="0" dy="0" style="font-family: Arial, sans-serif; font-size: 10px; fill: black; font-weight: bold;">30072.729999999978</tspan></text></g><g id="East" transform="translate(840,584.5419672741483)"><circle fill="#ff7f0e" r="4.008298265932723"/><text text-anchor="start" dominant-baseline="text-before-edge" transform="translate(0,-5.5)"><tspan x="6.008298265932723" y="0" dy="0" style="font-family: Arial, sans-serif; font-size: 10px; fill: black; font-weight: bold;">29071.38</tspan></text></g><g id="South" transform="translate(840,601.240294482162)"><circle fill="#2ca02c" r="3.092673968776873"/><text text-anchor="start" dominant-baseline="text-before-edge" transform="translate(0,-5.5)"><tspan x="5.092673968776873" y="0" dy="0" style="font-family: Arial, sans-serif; font-size: 10px; fill: black; font-weight: bold;">17306.683999999997</tspan></text></g><g id="Central" transform="translate(840,616.8428802121468)"><circle fill="#1f77b4" r="2.9035168112842364"/><text text-anchor="start" dominant-baseline="text-before-edge" transform="translate(0,-5.5)"><tspan x="4.903516811284236" y="0" dy="0" style="font-family: Arial, sans-serif; font-size: 10px; fill: black; font-weight: bold;">15254.369999999986</tspan></text></g><g id="East" transform="translate(840,635.6176528957707)"><circle fill="#ff7f0e" r="6.291031781572852"/><text text-anchor="start" dominant-baseline="text-before-edge" transform="translate(0,-5.5)"><tspan x="8.291031781572851" y="0" dy="0" style="font-family: Arial, sans-serif; font-size: 10px; fill: black; font-weight: bold;">71612.58400000002</tspan></text></g><g id="West" transform="translate(840,657.7050050913043)"><circle fill="#d62728" r="6.243425434977027"/><text text-anchor="start" dominant-baseline="text-before-edge" transform="translate(0,-5.5)"><tspan x="8.243425434977027" y="0" dy="0" style="font-family: Arial, sans-serif; font-size: 10px; fill: black; font-weight: bold;">70532.85199999998</tspan></text></g><g id="Central" transform="translate(840,678.5497833090774)"><circle fill="#1f77b4" r="5.038206444406385"/><text text-anchor="start" dominant-baseline="text-before-edge" transform="translate(0,-5.5)"><tspan x="7.038206444406385" y="0" dy="0" style="font-family: Arial, sans-serif; font-size: 10px; fill: black; font-weight: bold;">45930.11200000004</tspan></text></g><g id="South" transform="translate(840,697.6118989395974)"><circle fill="#2ca02c" r="4.446055703354294"/><text text-anchor="start" dominant-baseline="text-before-edge" transform="translate(0,-5.5)"><tspan x="6.446055703354294" y="0" dy="0" style="font-family: Arial, sans-serif; font-size: 10px; fill: black; font-weight: bold;">35768.05999999997</tspan></text></g><g id="Central" transform="translate(840,717.239967611669)"><circle fill="#1f77b4" r="5.608828655069415"/><text text-anchor="start" dominant-baseline="text-before-edge" transform="translate(0,-5.5)"><tspan x="7.608828655069415" y="0" dy="0" style="font-family: Arial, sans-serif; font-size: 10px; fill: black; font-weight: bold;">56923.28200000003</tspan></text></g><g id="West" transform="translate(840,737.9740794889905)"><circle fill="#d62728" r="5.561223875502096"/><text text-anchor="start" dominant-baseline="text-before-edge" transform="translate(0,-5.5)"><tspan x="7.561223875502096" y="0" dy="0" style="font-family: Arial, sans-serif; font-size: 10px; fill: black; font-weight: bold;">55961.11300000001</tspan></text></g><g id="East" transform="translate(840,758.538223619283)"><circle fill="#ff7f0e" r="5.437458657153794"/><text text-anchor="start" dominant-baseline="text-before-edge" transform="translate(0,-5.5)"><tspan x="7.437458657153794" y="0" dy="0" style="font-family: Arial, sans-serif; font-size: 10px; fill: black; font-weight: bold;">53497.99699999995</tspan></text></g><g id="South" transform="translate(840,778.0734602370087)"><circle fill="#2ca02c" r="4.523827773204882"/><text text-anchor="start" dominant-baseline="text-before-edge" transform="translate(0,-5.5)"><tspan x="6.523827773204882" y="0" dy="0" style="font-family: Arial, sans-serif; font-size: 10px; fill: black; font-weight: bold;">37030.341</tspan></text></g><g id="East" transform="translate(840,796.5269363654749)"><circle fill="#ff7f0e" r="4.346773535828259"/><text text-anchor="start" dominant-baseline="text-before-edge" transform="translate(0,-5.5)"><tspan x="6.346773535828259" y="0" dy="0" style="font-family: Arial, sans-serif; font-size: 10px; fill: black; font-weight: bold;">34188.46599999999</tspan></text></g><g id="West" transform="translate(840,814.5479726196895)"><circle fill="#d62728" r="4.087820226805436"/><text text-anchor="start" dominant-baseline="text-before-edge" transform="translate(0,-5.5)"><tspan x="6.087820226805436" y="0" dy="0" style="font-family: Arial, sans-serif; font-size: 10px; fill: black; font-weight: bold;">30236.33599999999</tspan></text></g><g id="Central" transform="translate(840,831.8383516637592)"><circle fill="#1f77b4" r="3.6100883307325464"/><text text-anchor="start" dominant-baseline="text-before-edge" transform="translate(0,-5.5)"><tspan x="5.610088330732546" y="0" dy="0" style="font-family: Arial, sans-serif; font-size: 10px; fill: black; font-weight: bold;">23582.03299999999</tspan></text></g><g id="South" transform="translate(840,848.3324119623026)"><circle fill="#2ca02c" r="3.2849317721044704"/><text text-anchor="start" dominant-baseline="text-before-edge" transform="translate(0,-5.5)"><tspan x="5.28493177210447" y="0" dy="0" style="font-family: Arial, sans-serif; font-size: 10px; fill: black; font-weight: bold;">19525.326000000005</tspan></text></g><g id="West" transform="translate(840,865.0532429945779)"><circle fill="#d62728" r="3.83872994566429"/><text text-anchor="start" dominant-baseline="text-before-edge" transform="translate(0,-5.5)"><tspan x="5.83872994566429" y="0" dy="0" style="font-family: Arial, sans-serif; font-size: 10px; fill: black; font-weight: bold;">26663.717999999983</tspan></text></g><g id="East" transform="translate(840,881.8276369109552)"><circle fill="#ff7f0e" r="3.3389365553493286"/><text text-anchor="start" dominant-baseline="text-before-edge" transform="translate(0,-5.5)"><tspan x="5.338936555349329" y="0" dy="0" style="font-family: Arial, sans-serif; font-size: 10px; fill: black; font-weight: bold;">20172.601999999973</tspan></text></g><g id="Central" transform="translate(840,897.8784494919063)"><circle fill="#1f77b4" r="3.109178991960352"/><text text-anchor="start" dominant-baseline="text-before-edge" transform="translate(0,-5.5)"><tspan x="5.109178991960352" y="0" dy="0" style="font-family: Arial, sans-serif; font-size: 10px; fill: black; font-weight: bold;">17491.902000000002</tspan></text></g><g id="South" transform="translate(840,913.3913004782759)"><circle fill="#2ca02c" r="2.796536723889414"/><text text-anchor="start" dominant-baseline="text-before-edge" transform="translate(0,-5.5)"><tspan x="4.796536723889414" y="0" dy="0" style="font-family: Arial, sans-serif; font-size: 10px; fill: black; font-weight: bold;">14150.984</tspan></text></g><g id="West" transform="translate(840,928.9596452511171)"><circle fill="#d62728" r="3.1651306077120416"/><text text-anchor="start" dominant-baseline="text-before-edge" transform="translate(0,-5.5)"><tspan x="5.165130607712042" y="0" dy="0" style="font-family: Arial, sans-serif; font-size: 10px; fill: black; font-weight: bold;">18127.121999999992</tspan></text></g><g id="East" transform="translate(840,944.1729549400363)"><circle fill="#ff7f0e" r="2.4385725650697574"/><text text-anchor="start" dominant-baseline="text-before-edge" transform="translate(0,-5.5)"><tspan x="4.438572565069757" y="0" dy="0" style="font-family: Arial, sans-serif; font-size: 10px; fill: black; font-weight: bold;">10760.116000000005</tspan></text></g><g id="Central" transform="translate(840,958.5157151467274)"><circle fill="#1f77b4" r="2.2873990053183215"/><text text-anchor="start" dominant-baseline="text-before-edge" transform="translate(0,-5.5)"><tspan x="4.2873990053183215" y="0" dy="0" style="font-family: Arial, sans-serif; font-size: 10px; fill: black; font-weight: bold;">9467.372000000001</tspan></text></g><g id="South" transform="translate(840,972.5664899632152)"><circle fill="#2ca02c" r="2.144178266238218"/><text text-anchor="start" dominant-baseline="text-before-edge" transform="translate(0,-5.5)"><tspan x="4.144178266238217" y="0" dy="0" style="font-family: Arial, sans-serif; font-size: 10px; fill: black; font-weight: bold;">8318.928000000002</tspan></text></g><g id="West" transform="translate(840,986.5864660222418)"><circle fill="#d62728" r="2.2563461550323534"/><text text-anchor="start" dominant-baseline="text-before-edge" transform="translate(0,-5.5)"><tspan x="4.256346155032354" y="0" dy="0" style="font-family: Arial, sans-serif; font-size: 10px; fill: black; font-weight: bold;">9212.066000000003</tspan></text></g><g id="East" transform="translate(840,1000.4971389927053)"><circle fill="#ff7f0e" r="2.033973416279018"/><text text-anchor="start" dominant-baseline="text-before-edge" transform="translate(0,-5.5)"><tspan x="4.033973416279018" y="0" dy="0" style="font-family: Arial, sans-serif; font-size: 10px; fill: black; font-weight: bold;">7485.764</tspan></text></g><g id="Central" transform="translate(840,1013.9403285463173)"><circle fill="#1f77b4" r="1.7850059533066838"/><text text-anchor="start" dominant-baseline="text-before-edge" transform="translate(0,-5.5)"><tspan x="3.7850059533066838" y="0" dy="0" style="font-family: Arial, sans-serif; font-size: 10px; fill: black; font-weight: bold;">5765.340000000002</tspan></text></g><g id="South" transform="translate(840,1026.9571058356948)"><circle fill="#2ca02c" r="1.604043208281168"/><text text-anchor="start" dominant-baseline="text-before-edge" transform="translate(0,-5.5)"><tspan x="3.604043208281168" y="0" dy="0" style="font-family: Arial, sans-serif; font-size: 10px; fill: black; font-weight: bold;">4655.622000000002</tspan></text></g><g id="Central" transform="translate(840,1039.7911942697692)"><circle fill="#1f77b4" r="1.6008098967029536"/><text text-anchor="start" dominant-baseline="text-before-edge" transform="translate(0,-5.5)"><tspan x="3.6008098967029536" y="0" dy="0" style="font-family: Arial, sans-serif; font-size: 10px; fill: black; font-weight: bold;">4636.872000000001</tspan></text></g><g id="East" transform="translate(840,1052.5767445580316)"><circle fill="#ff7f0e" r="1.55510461791915"/><text text-anchor="start" dominant-baseline="text-before-edge" transform="translate(0,-5.5)"><tspan x="3.5551046179191497" y="0" dy="0" style="font-family: Arial, sans-serif; font-size: 10px; fill: black; font-weight: bold;">4375.874</tspan></text></g><g id="West" transform="translate(840,1065.270844797777)"><circle fill="#d62728" r="1.5086053761528757"/><text text-anchor="start" dominant-baseline="text-before-edge" transform="translate(0,-5.5)"><tspan x="3.5086053761528757" y="0" dy="0" style="font-family: Arial, sans-serif; font-size: 10px; fill: black; font-weight: bold;">4118.100000000001</tspan></text></g><g id="South" transform="translate(840,1077.7711960419674)"><circle fill="#2ca02c" r="1.3597571738020435"/><text text-anchor="start" dominant-baseline="text-before-edge" transform="translate(0,-5.5)"><tspan x="3.3597571738020435" y="0" dy="0" style="font-family: Arial, sans-serif; font-size: 10px; fill: black; font-weight: bold;">3345.556</tspan></text></g><g id="West" transform="translate(840,1090.4369238657266)"><circle fill="#d62728" r="1.6753463290187312"/><text text-anchor="start" dominant-baseline="text-before-edge" transform="translate(0,-5.5)"><tspan x="3.675346329018731" y="0" dy="0" style="font-family: Arial, sans-serif; font-size: 10px; fill: black; font-weight: bold;">5078.726000000001</tspan></text></g><g id="East" transform="translate(840,1102.9435922467765)"><circle fill="#ff7f0e" r="1.1993854748059154"/><text text-anchor="start" dominant-baseline="text-before-edge" transform="translate(0,-5.5)"><tspan x="3.1993854748059154" y="0" dy="0" style="font-family: Arial, sans-serif; font-size: 10px; fill: black; font-weight: bold;">2602.934</tspan></text></g><g id="Central" transform="translate(840,1114.9430657282967)"><circle fill="#1f77b4" r="1.16396702091673"/><text text-anchor="start" dominant-baseline="text-before-edge" transform="translate(0,-5.5)"><tspan x="3.16396702091673" y="0" dy="0" style="font-family: Arial, sans-serif; font-size: 10px; fill: black; font-weight: bold;">2451.472</tspan></text></g><g id="South" transform="translate(840,1126.8840300670638)"><circle fill="#2ca02c" r="1.1403936257822918"/><text text-anchor="start" dominant-baseline="text-before-edge" transform="translate(0,-5.5)"><tspan x="3.1403936257822918" y="0" dy="0" style="font-family: Arial, sans-serif; font-size: 10px; fill: black; font-weight: bold;">2353.1800000000003</tspan></text></g><g id="West" transform="translate(840,1138.379003920031)"><circle fill="#d62728" r="0.7142970690707472"/><text text-anchor="start" dominant-baseline="text-before-edge" transform="translate(0,-5.5)"><tspan x="2.714297069070747" y="0" dy="0" style="font-family: Arial, sans-serif; font-size: 10px; fill: black; font-weight: bold;">923.2160000000001</tspan></text></g><g id="East" transform="translate(840,1149.4104768503441)"><circle fill="#ff7f0e" r="0.6730687742283927"/><text text-anchor="start" dominant-baseline="text-before-edge" transform="translate(0,-5.5)"><tspan x="2.6730687742283927" y="0" dy="0" style="font-family: Arial, sans-serif; font-size: 10px; fill: black; font-weight: bold;">819.7179999999997</tspan></text></g><g id="Central" transform="translate(840,1160.3838624289772)"><circle fill="#1f77b4" r="0.6557304909386321"/><text text-anchor="start" dominant-baseline="text-before-edge" transform="translate(0,-5.5)"><tspan x="2.655730490938632" y="0" dy="0" style="font-family: Arial, sans-serif; font-size: 10px; fill: black; font-weight: bold;">778.0300000000003</tspan></text></g><g id="South" transform="translate(840,1171.212780154396)"><circle fill="#2ca02c" r="0.5274090467977545"/><text text-anchor="start" dominant-baseline="text-before-edge" transform="translate(0,-5.5)"><tspan x="2.5274090467977546" y="0" dy="0" style="font-family: Arial, sans-serif; font-size: 10px; fill: black; font-weight: bold;">503.31600000000003</tspan></text></g></g></g></svg>